# xmcd
#
# Track frame offsets:
#	180
#	31718
#	54891
#	79185
#	115637
#	143986
#	168209
#	200027
#	225742
#	251685
#	270063
#
# Disc length: 3620 seconds
#
# Revision: 0
# Processed by: cddbd v1.4PL0 Copyright (c) Steve Scherf et al.
# Submitted via: dBpowerAMP V4.0
#
DISCID=830e220b
DTITLE=Johnnie Johnson - Johnnie B. Live
DYEAR=1997
DGENRE=Blues
TTITLE0=Real Good Woman
TTITLE1=If You Love Me Like You Say
TTITLE2=Johnnie's Boogie
TTITLE3=Georgia On My Mind
TTITLE4=Tanqueray
TTITLE5=I'm Goin' Fishin'
TTITLE6=Sweet Little Angel
TTITLE7=Stepped In What!?
TTITLE8=Bye Bye Johnny/Carol
TTITLE9=George's Jam
TTITLE10=Guest Comment
EXTD=
EXTT0=
EXTT1=
EXTT2=
EXTT3=
EXTT4=
EXTT5=
EXTT6=
EXTT7=
EXTT8=
EXTT9=
EXTT10=
PLAYORDER=
